<svg width="53" height="45" viewBox="0 0 53 45" fill="none" xmlns="http://www.w3.org/2000/svg">
<path d="M45.0491 7.91794H41.6571L40.8092 5.27864C40.2594 3.72999 39.2397 2.38995 37.8913 1.44418C36.5429 0.498405 34.9325 -0.00627333 33.2833 5.88658e-05H19.7156C18.0502 0.00316191 16.4279 0.527081 15.0776 1.49787C13.7272 2.46866 12.7171 3.8373 12.1897 5.41061L11.3418 8.0499H7.94983C5.84141 8.0499 3.81934 8.8841 2.32845 10.369C0.83757 11.8539 0 13.8678 0 15.9678V37.0821C0 39.1821 0.83757 41.196 2.32845 42.6809C3.81934 44.1658 5.84141 45 7.94983 45H45.0491C47.1575 45 49.1796 44.1658 50.6704 42.6809C52.1613 41.196 52.9989 39.1821 52.9989 37.0821V15.9678C53.0165 14.9169 52.8238 13.8731 52.4322 12.8972C52.0406 11.9213 51.4578 11.0328 50.7178 10.2835C49.9778 9.53421 49.0955 8.93916 48.1223 8.53302C47.149 8.12688 46.1043 7.91779 45.0491 7.91794ZM47.699 36.9502C47.699 37.6501 47.4198 38.3215 46.9229 38.8164C46.4259 39.3114 45.7519 39.5894 45.0491 39.5894H7.94983C7.24703 39.5894 6.573 39.3114 6.07604 38.8164C5.57908 38.3215 5.29989 37.6501 5.29989 36.9502V15.8358C5.29989 15.1358 5.57908 14.4645 6.07604 13.9696C6.573 13.4746 7.24703 13.1965 7.94983 13.1965H13.2497C13.8276 13.2266 14.3994 13.0674 14.8779 12.7433C15.3564 12.4192 15.7153 11.9481 15.8997 11.4018L17.3306 7.07336C17.5084 6.54914 17.8471 6.09383 18.2989 5.77178C18.7506 5.44972 19.2925 5.27722 19.8481 5.27864H33.4158C33.9714 5.27722 34.5133 5.44972 34.965 5.77178C35.4168 6.09383 35.7555 6.54914 35.9333 7.07336L37.3642 11.4018C37.5343 11.9052 37.8529 12.3459 38.2784 12.6661C38.7039 12.9863 39.2165 13.1711 39.7492 13.1965H45.0491C45.7519 13.1965 46.4259 13.4746 46.9229 13.9696C47.4198 14.4645 47.699 15.1358 47.699 15.8358V36.9502ZM26.4995 13.1965C24.403 13.1965 22.3537 13.8157 20.6105 14.9757C18.8674 16.1358 17.5088 17.7846 16.7065 19.7136C15.9043 21.6427 15.6943 23.7654 16.1033 25.8133C16.5123 27.8612 17.5219 29.7423 19.0043 31.2187C20.4867 32.6952 22.3754 33.7007 24.4315 34.108C26.4877 34.5154 28.619 34.3063 30.5558 33.5072C32.4927 32.7082 34.1481 31.3551 35.3128 29.6189C36.4776 27.8828 37.0992 25.8417 37.0992 23.7537C37.0992 20.9538 35.9825 18.2685 33.9946 16.2886C32.0068 14.3088 29.3107 13.1965 26.4995 13.1965ZM26.4995 29.0323C25.4512 29.0323 24.4266 28.7227 23.555 28.1427C22.6834 27.5627 22.0041 26.7383 21.603 25.7737C21.2019 24.8092 21.0969 23.7478 21.3014 22.7239C21.5059 21.6999 22.0107 20.7594 22.7519 20.0212C23.4931 19.2829 24.4374 18.7802 25.4655 18.5765C26.4936 18.3729 27.5592 18.4774 28.5276 18.8769C29.4961 19.2764 30.3238 19.953 30.9061 20.8211C31.4885 21.6891 31.7993 22.7097 31.7993 23.7537C31.7993 25.1537 31.241 26.4963 30.247 27.4862C29.2531 28.4761 27.9051 29.0323 26.4995 29.0323Z" fill="white"/>
</svg>
