<svg width="29" height="29" viewBox="0 0 29 29" fill="none" xmlns="http://www.w3.org/2000/svg">
<path d="M27.6667 11.7173V10.669C27.6667 8.07059 27.6667 6.77138 26.8856 5.96414C26.1046 5.15691 24.8475 5.15691 22.3333 5.15691H19.5618C18.3386 5.15691 18.3286 5.15452 17.2287 4.60148L12.7865 2.36799C10.9318 1.43545 10.0044 0.969176 9.0165 1.00158C8.02858 1.03398 7.1317 1.56009 5.33793 2.6123L3.70077 3.57265C2.38318 4.34554 1.72439 4.73199 1.36219 5.37488C1 6.01776 1 6.80066 1 8.36647V19.3745C1 21.4319 1 22.4605 1.45635 23.0331C1.76001 23.414 2.18554 23.6701 2.656 23.755C3.36302 23.8826 4.22864 23.3748 5.95983 22.3593C7.13541 21.6697 8.26681 20.9535 9.67316 21.1477C10.8516 21.3105 11.9467 22.0575 13 22.5871" stroke="white" stroke-width="2" stroke-linecap="round" stroke-linejoin="round"/>
<path d="M9 1L9 21.095" stroke="white" stroke-width="2" stroke-linejoin="round"/>
<path d="M18.334 5.019V10.3777" stroke="white" stroke-width="2" stroke-linecap="round" stroke-linejoin="round"/>
<path d="M21.666 13.7268C24.9131 13.7268 27.666 16.4283 27.666 19.7056C27.666 23.0352 24.8682 25.3717 22.284 26.9605C22.0957 27.0674 21.8827 27.1235 21.666 27.1235C21.4493 27.1235 21.2363 27.0674 21.048 26.9605C18.4686 25.3562 15.666 23.0467 15.666 19.7056C15.666 16.4283 18.419 13.7268 21.666 13.7268Z" stroke="white" stroke-width="2"/>
<path d="M21.666 19.7553H21.678" stroke="white" stroke-width="2" stroke-linecap="round" stroke-linejoin="round"/>
</svg>
