<svg xmlns="http://www.w3.org/2000/svg" width="1300" height="500" viewBox="0 0 1300 500"><rect width="100%" height="100%" fill="#DDDDDD"/><path fill="#999999" d="m481.44 220.37-8.13 11.25q-1.37 1.75-2.69 2.75-1.31 1-3.81 1-2.37 0-4.62-1.43-2.25-1.44-5.38-3.25-3.12-1.82-7.44-3.25-4.31-1.44-10.68-1.44-8.13 0-14.25 2.94-6.13 2.93-10.19 8.43t-6.06 13.32q-2 7.81-2 17.68 0 10.25 2.18 18.25 2.19 8 6.32 13.44 4.12 5.44 10 8.25 5.87 2.81 13.25 2.81 7.37 0 11.93-1.81 4.57-1.81 7.69-4 3.13-2.19 5.44-4t5.19-1.81q3.75 0 5.62 2.87l8.88 11.25q-5.13 6-11.13 10.07-6 4.06-12.44 6.5-6.43 2.43-13.25 3.44-6.81 1-13.56 1-11.87 0-22.37-4.44t-18.38-12.94q-7.87-8.5-12.44-20.81-4.56-12.32-4.56-28.07 0-14.12 4.06-26.18 4.07-12.07 11.94-20.88 7.88-8.81 19.5-13.81 11.63-5 26.75-5 14.38 0 25.19 4.62 10.81 4.63 19.44 13.25m88.25 79.25V278q-13.38.62-22.5 2.31-9.13 1.69-14.63 4.31-5.5 2.63-7.87 6.13-2.38 3.5-2.38 7.62 0 8.13 4.81 11.63 4.82 3.5 12.57 3.5 9.5 0 16.43-3.44 6.94-3.44 13.57-10.44m-65.25-67.37-5.5-9.88q22.12-20.25 53.25-20.25 11.25 0 20.12 3.69 8.88 3.69 15 10.25 6.13 6.56 9.31 15.69 3.19 9.12 3.19 20v81h-14q-4.37 0-6.75-1.31-2.37-1.32-3.75-5.32l-2.75-9.25q-4.87 4.38-9.5 7.69-4.62 3.31-9.62 5.56t-10.69 3.44-12.56 1.19q-8.13 0-15-2.19-6.88-2.19-11.88-6.56-5-4.38-7.75-10.88T492.81 300q0-4.88 1.63-9.69 1.62-4.81 5.31-9.19 3.69-4.37 9.56-8.25 5.88-3.87 14.44-6.75 8.56-2.87 19.94-4.68 11.37-1.82 26-2.19v-7.5q0-12.88-5.5-19.06-5.5-6.19-15.88-6.19-7.5 0-12.44 1.75-4.93 1.75-8.68 3.94-3.75 2.18-6.82 3.93-3.06 1.75-6.81 1.75-3.25 0-5.5-1.68-2.25-1.69-3.62-3.94m151.62-20 1.88 14.5q6-11.5 14.25-18.06 8.25-6.57 19.5-6.57 8.87 0 14.25 3.88l-2 23.12q-.63 2.25-1.81 3.19-1.19.94-3.19.94-1.88 0-5.56-.63-3.69-.62-7.19-.62-5.13 0-9.13 1.5t-7.18 4.31q-3.19 2.81-5.63 6.81t-4.56 9.13v79h-30.88V204.5h18.13q4.75 0 6.62 1.69 1.88 1.68 2.5 6.06m108.75 122.5q-16.75 0-25.68-9.44-8.94-9.44-8.94-26.06v-71.63h-13.13q-2.5 0-4.25-1.62-1.75-1.63-1.75-4.88v-12.25l20.63-3.37 6.5-35q.62-2.5 2.37-3.88 1.75-1.37 4.5-1.37h16v40.37h34.25v22h-34.25v69.5q0 6 2.94 9.38 2.94 3.37 8.06 3.37 2.88 0 4.82-.68 1.93-.69 3.37-1.44t2.56-1.44q1.13-.69 2.25-.69 1.38 0 2.25.69.88.69 1.88 2.06l9.25 15q-6.75 5.63-15.5 8.5-8.75 2.88-18.13 2.88m74.63-80.88h58.25q0-6-1.69-11.31t-5.06-9.31q-3.38-4-8.56-6.31-5.19-2.32-12.07-2.32-13.37 0-21.06 7.63-7.69 7.62-9.81 21.62m78.75 18.63h-79.38q.75 9.87 3.5 17.06t7.25 11.88q4.5 4.68 10.69 7 6.19 2.31 13.69 2.31t12.94-1.75q5.43-1.75 9.5-3.88 4.06-2.12 7.12-3.87t5.94-1.75q3.87 0 5.75 2.87l8.87 11.25q-5.12 6-11.5 10.07-6.37 4.06-13.31 6.5-6.94 2.43-14.12 3.44-7.19 1-13.94 1-13.38 0-24.88-4.44t-20-13.13-13.37-21.5q-4.88-12.81-4.88-29.69 0-13.12 4.25-24.68 4.25-11.57 12.19-20.13t19.38-13.56q11.43-5 25.81-5 12.12 0 22.37 3.87 10.25 3.88 17.63 11.32 7.37 7.43 11.56 18.25 4.19 10.81 4.19 24.68 0 7-1.5 9.44t-5.75 2.44"/></svg>