<svg xmlns="http://www.w3.org/2000/svg" width="359" height="522" viewBox="0 0 359 522"><rect width="100%" height="100%" fill="#DDDDDD"/><path fill="#999999" d="m115.445 249.745-3.09 4.27q-.52.67-1.02 1.05t-1.45.38q-.9 0-1.75-.55-.86-.54-2.05-1.23-1.18-.69-2.82-1.24-1.64-.54-4.06-.54-3.09 0-5.42 1.11-2.33 1.12-3.87 3.21t-2.3 5.06-.76 6.72q0 3.89.83 6.93t2.4 5.11q1.56 2.06 3.8 3.13 2.23 1.07 5.03 1.07t4.54-.69q1.73-.69 2.92-1.52t2.06-1.52q.88-.68 1.98-.68 1.42 0 2.13 1.09l3.38 4.27q-1.95 2.28-4.23 3.83-2.28 1.54-4.73 2.47-2.44.92-5.03 1.3t-5.16.38q-4.51 0-8.5-1.68-3.99-1.69-6.98-4.92t-4.73-7.91q-1.73-4.68-1.73-10.66 0-5.37 1.54-9.95 1.55-4.59 4.54-7.94t7.41-5.24q4.42-1.9 10.16-1.9 5.47 0 9.58 1.75 4.1 1.76 7.38 5.04m33.54 30.11v-8.21q-5.09.23-8.55.87-3.47.64-5.56 1.64t-2.99 2.33q-.91 1.33-.91 2.9 0 3.09 1.83 4.42 1.83 1.32 4.78 1.32 3.61 0 6.24-1.3 2.64-1.31 5.16-3.97m-24.8-25.6-2.09-3.75q8.41-7.7 20.24-7.7 4.27 0 7.64 1.4 3.38 1.4 5.7 3.9 2.33 2.49 3.54 5.96t1.21 7.6v30.78h-5.32q-1.66 0-2.56-.5t-1.43-2.02l-1.04-3.51q-1.85 1.66-3.61 2.92t-3.66 2.11q-1.9.86-4.06 1.31t-4.77.45q-3.09 0-5.7-.83-2.62-.83-4.52-2.49-1.9-1.67-2.94-4.14-1.05-2.47-1.05-5.75 0-1.85.62-3.68t2.02-3.49 3.63-3.13q2.24-1.48 5.49-2.57t7.58-1.78q4.32-.69 9.88-.83v-2.85q0-4.89-2.09-7.24-2.09-2.36-6.04-2.36-2.85 0-4.72.67-1.88.66-3.3 1.5-1.43.83-2.59 1.49-1.17.67-2.59.67-1.24 0-2.09-.64-.86-.65-1.38-1.5m57.62-7.6.71 5.51q2.28-4.37 5.42-6.86 3.13-2.5 7.41-2.5 3.37 0 5.41 1.48l-.76 8.78q-.24.86-.69 1.21-.45.36-1.21.36-.71 0-2.11-.24t-2.73-.24q-1.95 0-3.47.57t-2.73 1.64-2.14 2.59-1.73 3.47v30.02h-11.74v-48.73h6.89q1.81 0 2.52.64t.95 2.3m41.32 46.55q-6.36 0-9.76-3.59-3.39-3.58-3.39-9.9v-27.22h-4.99q-.95 0-1.62-.61-.66-.62-.66-1.86v-4.65l7.84-1.29 2.47-13.3q.23-.95.9-1.47.66-.52 1.71-.52h6.08v15.34h13.01v8.36h-13.01v26.41q0 2.28 1.12 3.57 1.11 1.28 3.06 1.28 1.09 0 1.83-.26.73-.26 1.28-.55t.97-.55q.43-.26.86-.26.52 0 .85.26.34.26.72.79l3.51 5.7q-2.56 2.13-5.89 3.23-3.32 1.09-6.89 1.09m28.36-30.73h22.14q0-2.28-.64-4.3-.65-2.02-1.93-3.54t-3.25-2.4-4.59-.88q-5.08 0-8 2.9t-3.73 8.22m29.93 7.08h-30.17q.29 3.75 1.33 6.48 1.05 2.73 2.76 4.51t4.06 2.66 5.2.88 4.92-.67q2.06-.66 3.61-1.47 1.54-.8 2.71-1.47 1.16-.66 2.25-.66 1.47 0 2.19 1.09l3.37 4.27q-1.95 2.28-4.37 3.83-2.42 1.54-5.06 2.47-2.64.92-5.37 1.3t-5.29.38q-5.09 0-9.46-1.68-4.37-1.69-7.6-4.99t-5.08-8.17-1.85-11.28q0-4.99 1.61-9.38 1.62-4.4 4.64-7.65 3.01-3.26 7.36-5.15 4.34-1.9 9.81-1.9 4.6 0 8.5 1.47 3.89 1.47 6.7 4.3 2.8 2.82 4.39 6.93t1.59 9.38q0 2.66-.57 3.59t-2.18.93"/></svg>