<svg width="70" height="70" viewBox="0 0 70 70" fill="none" xmlns="http://www.w3.org/2000/svg">
<path d="M7.29199 34.9998C7.29199 21.938 7.29199 15.4071 11.3498 11.3493C15.4076 7.2915 21.9385 7.2915 35.0003 7.2915C48.0622 7.2915 54.5931 7.2915 58.6509 11.3493C62.7087 15.4071 62.7087 21.938 62.7087 34.9998C62.7087 48.0617 62.7087 54.5926 58.6509 58.6504C54.5931 62.7082 48.0622 62.7082 35.0003 62.7082C21.9385 62.7082 15.4076 62.7082 11.3498 58.6504C7.29199 54.5926 7.29199 48.0617 7.29199 34.9998Z" stroke="#41A62A" stroke-width="4.5"/>
<path d="M29.167 26.2498C29.167 23.0282 31.7787 20.4165 35.0003 20.4165C38.222 20.4165 40.8337 23.0282 40.8337 26.2498C40.8337 27.4111 40.4943 28.4931 39.9094 29.4021C38.1661 32.1114 35.0003 34.6948 35.0003 37.9165V39.3748" stroke="#41A62A" stroke-width="4.375" stroke-linecap="round"/>
<path d="M34.977 49.583H35.0032" stroke="#41A62A" stroke-width="5.83333" stroke-linecap="round" stroke-linejoin="round"/>
</svg>
