<svg width="28" height="28" viewBox="0 0 28 28" fill="none" xmlns="http://www.w3.org/2000/svg">
<path d="M1 13.6667C1 7.69554 1 4.70998 2.85499 2.85499C4.70998 1 7.69554 1 13.6667 1C19.6378 1 22.6234 1 24.4783 2.85499C26.3333 4.70998 26.3333 7.69554 26.3333 13.6667C26.3333 19.6378 26.3333 22.6234 24.4783 24.4783C22.6234 26.3333 19.6378 26.3333 13.6667 26.3333C7.69554 26.3333 4.70998 26.3333 2.85499 24.4783C1 22.6234 1 19.6378 1 13.6667Z" stroke="white" stroke-width="2"/>
<path d="M11 9.66667C11 8.19391 12.1939 7 13.6667 7C15.1394 7 16.3333 8.19391 16.3333 9.66667C16.3333 10.1975 16.1782 10.6922 15.9108 11.1077C15.1139 12.3462 13.6667 13.5272 13.6667 15V15.6667" stroke="white" stroke-width="2" stroke-linecap="round"/>
<path d="M13.656 20.3333H13.668" stroke="white" stroke-width="2" stroke-linecap="round" stroke-linejoin="round"/>
</svg>
