<svg width="46" height="46" viewBox="0 0 46 46" fill="none" xmlns="http://www.w3.org/2000/svg">
<path d="M5.70534 22.7142C3.73028 19.2704 2.77664 16.4582 2.20161 13.6077C1.35117 9.39176 3.29739 5.27349 6.5215 2.64571C7.88414 1.53511 9.44618 1.91456 10.252 3.36014L12.0711 6.6237C13.513 9.21049 14.2339 10.5039 14.0909 11.8751C13.9479 13.2464 12.9756 14.3632 11.0311 16.5968L5.70534 22.7142ZM5.70534 22.7142C9.70301 29.6849 15.9766 35.9619 22.9554 39.9643M22.9554 39.9643C26.3992 41.9393 29.2114 42.893 32.0619 43.468C36.2778 44.3184 40.3961 42.3722 43.0239 39.1481C44.1345 37.7855 43.755 36.2234 42.3095 35.4176L39.0459 33.5985C36.4591 32.1566 35.1657 31.4357 33.7945 31.5787C32.4232 31.7217 31.3064 32.694 29.0728 34.6385L22.9554 39.9643Z" stroke="#41A62A" stroke-width="4" stroke-linejoin="round"/>
</svg>
