<svg width="28" height="29" viewBox="0 0 28 29" fill="none" xmlns="http://www.w3.org/2000/svg">
<path d="M26.34 7.84478L25.6819 6.70264C25.1841 5.83887 24.9353 5.40698 24.5118 5.23476C24.0884 5.06254 23.6095 5.19844 22.6517 5.47023L21.0248 5.92849C20.4133 6.0695 19.7717 5.98951 19.2134 5.70264L18.7642 5.44347C18.2855 5.13683 17.9172 4.6847 17.7134 4.15324L17.2681 2.82339C16.9753 1.94337 16.8289 1.50335 16.4804 1.25168C16.1319 1 15.669 1 14.7432 1H13.2568C12.331 1 11.8681 1 11.5196 1.25168C11.1711 1.50335 11.0247 1.94337 10.732 2.82339L10.2867 4.15324C10.0829 4.6847 9.7146 5.13683 9.23583 5.44347L8.78665 5.70264C8.22832 5.98951 7.58679 6.0695 6.97531 5.92849L5.34833 5.47023C4.39055 5.19844 3.91166 5.06254 3.48823 5.23476C3.06479 5.40698 2.81593 5.83887 2.31821 6.70264L1.66009 7.84478C1.19354 8.65444 0.96027 9.05927 1.00554 9.49023C1.05082 9.92119 1.36311 10.2685 1.98768 10.9631L3.3624 12.5C3.6984 12.9254 3.93694 13.6667 3.93694 14.3331C3.93694 15 3.69848 15.7411 3.36244 16.1665L1.98769 17.7035C1.36311 18.3981 1.05082 18.7454 1.00555 19.1763C0.96027 19.6073 1.19355 20.0121 1.66009 20.8218L2.31819 21.9639C2.8159 22.8276 3.06479 23.2596 3.48823 23.4318C3.91167 23.604 4.39057 23.4681 5.34836 23.1963L6.97525 22.738C7.58684 22.597 8.22849 22.677 8.78689 22.964L9.236 23.2232C9.71468 23.5298 10.0829 23.9819 10.2867 24.5133L10.732 25.8433C11.0247 26.7233 11.1711 27.1633 11.5196 27.415C11.8681 27.6667 12.331 27.6667 13.2568 27.6667H14.7432C15.669 27.6667 16.1319 27.6667 16.4804 27.415C16.8289 27.1633 16.9753 26.7233 17.2681 25.8433L17.7134 24.5133C17.9172 23.9819 18.2854 23.5298 18.7641 23.2232L19.2132 22.964C19.7716 22.677 20.4132 22.597 21.0248 22.738L22.6517 23.1963C23.6095 23.4681 24.0884 23.604 24.5118 23.4318C24.9353 23.2596 25.1842 22.8276 25.6819 21.9639L25.6819 21.9639L26.34 20.8218C26.8065 20.0121 27.0398 19.6073 26.9945 19.1763C26.9492 18.7454 26.637 18.3981 26.0124 17.7035L24.6376 16.1665C24.3016 15.7411 24.0631 15 24.0631 14.3331C24.0631 13.6667 24.3017 12.9254 24.6377 12.5L26.0124 10.9631C26.637 10.2685 26.9492 9.92119 26.9945 9.49023C27.0398 9.05927 26.8065 8.65444 26.34 7.84478Z" stroke="white" stroke-width="2" stroke-linecap="round"/>
<path d="M13.916 8.98962V14.323L17.6543 16.323" stroke="white" stroke-width="2" stroke-linecap="round" stroke-linejoin="round"/>
</svg>
