<svg width="64" height="64" viewBox="0 0 64 64" fill="none" xmlns="http://www.w3.org/2000/svg">
<path d="M56.847 19.044L55.5307 16.7598C54.5353 15.0322 54.0375 14.1685 53.1907 13.824C52.3438 13.4796 51.386 13.7514 49.4705 14.2949L46.2165 15.2115C44.9936 15.4935 43.7105 15.3335 42.5938 14.7598L41.6955 14.2414C40.7379 13.6281 40.0014 12.7239 39.5937 11.661L38.7032 9.00128C38.1176 7.24123 37.8249 6.3612 37.1279 5.85785C36.4309 5.35449 35.505 5.35449 33.6534 5.35449H30.6807C28.8291 5.35449 27.9033 5.35449 27.2063 5.85785C26.5093 6.3612 26.2165 7.24123 25.631 9.00128L24.7404 11.661C24.3327 12.7239 23.5962 13.6281 22.6386 14.2414L21.7403 14.7598C20.6236 15.3335 19.3406 15.4935 18.1176 15.2115L14.8636 14.2949C12.9481 13.7514 11.9903 13.4796 11.1434 13.824C10.2966 14.1685 9.79885 15.0322 8.8034 16.7598L7.48717 19.044C6.55408 20.6634 6.08753 21.473 6.17808 22.335C6.26863 23.1969 6.8932 23.8915 8.14235 25.2806L10.8918 28.3545C11.5638 29.2053 12.0409 30.6878 12.0409 32.0207C12.0409 33.3545 11.5639 34.8367 10.8919 35.6875L8.14236 38.7614C6.89321 40.1506 6.26863 40.8452 6.17808 41.7071C6.08753 42.569 6.55409 43.3787 7.48717 44.9981L8.80336 47.2822C9.7988 49.0098 10.2966 49.8736 11.1434 50.2181C11.9903 50.5625 12.9481 50.2907 14.8637 49.747L18.1175 48.8305C19.3407 48.5484 20.624 48.7085 21.7408 49.2825L22.639 49.8008C23.5963 50.4141 24.3327 51.3183 24.7403 52.3811L25.631 55.041C26.2165 56.8011 26.5093 57.6811 27.2063 58.1845C27.9033 58.6878 28.8291 58.6878 30.6807 58.6878H33.6534C35.505 58.6878 36.4309 58.6878 37.1279 58.1845C37.8249 57.6811 38.1176 56.8011 38.7032 55.041L39.5938 52.3811C40.0014 51.3183 40.7378 50.4141 41.6951 49.8008L42.5933 49.2825C43.7101 48.7085 44.9935 48.5484 46.2166 48.8305L49.4704 49.747C51.386 50.2907 52.3438 50.5625 53.1907 50.2181C54.0375 49.8736 54.5353 49.0098 55.5307 47.2823L55.5308 47.2822L56.8469 44.9981C57.78 43.3787 58.2466 42.569 58.156 41.7071C58.0655 40.8452 57.4409 40.1506 56.1918 38.7614L53.4423 35.6875C52.7702 34.8367 52.2932 33.3545 52.2932 32.0207C52.2932 30.6878 52.7703 29.2053 53.4423 28.3545L56.1918 25.2806C57.4409 23.8915 58.0655 23.1969 58.156 22.335C58.2466 21.473 57.78 20.6634 56.847 19.044Z" stroke="#41A62A" stroke-width="4.5" stroke-linecap="round"/>
<path d="M32 21.334V32.0007L39.4766 36.0007" stroke="#41A62A" stroke-width="4" stroke-linecap="round" stroke-linejoin="round"/>
</svg>
