<svg width="64" height="64" viewBox="0 0 64 64" fill="none" xmlns="http://www.w3.org/2000/svg">
<path d="M24.1644 12.8702L8.63763 26.4569C7.30613 27.622 8.19888 29.6914 10.033 29.6914C11.1536 29.6914 12.062 30.5305 12.062 31.5655V40.2149C12.062 47.656 12.062 51.3766 14.5647 53.6883C17.0674 56 21.0955 56 29.1517 56H34.8483C42.9045 56 46.9326 56 49.4353 53.6883C51.938 51.3766 51.938 47.656 51.938 40.2149V31.5655C51.938 30.5305 52.8464 29.6914 53.967 29.6914C55.8011 29.6914 56.6939 27.622 55.3624 26.4569L39.8356 12.8702C36.1252 9.62341 34.2699 8 32 8C29.7301 8 27.8748 9.62341 24.1644 12.8702Z" stroke="#41A62A" stroke-width="4" stroke-linecap="round" stroke-linejoin="round"/>
</svg>
