<svg width="64" height="64" viewBox="0 0 64 64" fill="none" xmlns="http://www.w3.org/2000/svg">
<path d="M9.33301 26.6663C9.33301 16.6097 9.33301 11.5814 12.6525 8.4572C15.9719 5.33301 21.3145 5.33301 31.9997 5.33301H34.0603C42.7568 5.33301 47.1051 5.33301 50.1248 7.46057C50.99 8.07015 51.7581 8.79307 52.4058 9.60738C54.6663 12.4495 54.6663 16.542 54.6663 24.7269V31.5148C54.6663 39.4166 54.6663 43.3675 53.4158 46.523C51.4055 51.5959 47.154 55.5973 41.764 57.4894C38.4113 58.6663 34.2135 58.6663 25.8179 58.6663C21.0203 58.6663 18.6216 58.6663 16.7057 57.9938C13.6258 56.9126 11.1963 54.6261 10.0476 51.7273C9.33301 49.9242 9.33301 47.6665 9.33301 43.1512V26.6663Z" stroke="#41A62A" stroke-width="4.5" stroke-linejoin="round"/>
<path d="M54.6667 32C54.6667 36.9092 50.687 40.8889 45.7778 40.8889C44.0024 40.8889 41.9092 40.5778 40.183 41.0403C38.6493 41.4513 37.4513 42.6493 37.0403 44.183C36.5778 45.9092 36.8889 48.0024 36.8889 49.7778C36.8889 54.687 32.9092 58.6667 28 58.6667" stroke="#41A62A" stroke-width="4.5" stroke-linecap="round" stroke-linejoin="round"/>
<path d="M21.333 18.666H39.9997" stroke="#41A62A" stroke-width="5.33333" stroke-linecap="round" stroke-linejoin="round"/>
<path d="M21.333 29.333H29.333" stroke="#41A62A" stroke-width="5.33333" stroke-linecap="round" stroke-linejoin="round"/>
</svg>
