<svg width="33" height="37" viewBox="0 0 33 37" fill="none" xmlns="http://www.w3.org/2000/svg">
<g filter="url(#filter0_d_1080_7716)">
<path d="M5 11.7173C5 6.66514 5 4.13904 6.65973 2.56952C8.31946 1 10.9907 1 16.3333 1H17.3636C21.7119 1 23.886 1 25.3959 2.06883C25.8285 2.37507 26.2126 2.73825 26.5364 3.14734C27.6667 4.57513 27.6667 6.6311 27.6667 10.743V14.1531C27.6667 18.1228 27.6667 20.1076 27.0414 21.6928C26.0362 24.2413 23.9105 26.2515 21.2155 27.2021C19.5392 27.7933 17.4403 27.7933 13.2424 27.7933C10.8437 27.7933 9.64429 27.7933 8.68637 27.4555C7.14639 26.9123 5.93167 25.7636 5.35728 24.3073C5 23.4015 5 22.2673 5 19.9989V11.7173Z" stroke="white" stroke-width="2" stroke-linejoin="round"/>
<path d="M27.6673 14.3967C27.6673 16.8629 25.6775 18.8622 23.2229 18.8622C22.3352 18.8622 21.2886 18.7059 20.4255 18.9383C19.6586 19.1448 19.0596 19.7466 18.8541 20.5171C18.6229 21.3843 18.7784 22.4359 18.7784 23.3278C18.7784 25.794 16.7886 27.7933 14.334 27.7933" stroke="white" stroke-width="2" stroke-linecap="round" stroke-linejoin="round"/>
<path d="M11 7.6983H20.3333" stroke="white" stroke-width="2" stroke-linecap="round" stroke-linejoin="round"/>
<path d="M11 13.057H15" stroke="white" stroke-width="2" stroke-linecap="round" stroke-linejoin="round"/>
</g>
<defs>
<filter id="filter0_d_1080_7716" x="0" y="0" width="32.668" height="36.7934" filterUnits="userSpaceOnUse" color-interpolation-filters="sRGB">
<feFlood flood-opacity="0" result="BackgroundImageFix"/>
<feColorMatrix in="SourceAlpha" type="matrix" values="0 0 0 0 0 0 0 0 0 0 0 0 0 0 0 0 0 0 127 0" result="hardAlpha"/>
<feOffset dy="4"/>
<feGaussianBlur stdDeviation="2"/>
<feComposite in2="hardAlpha" operator="out"/>
<feColorMatrix type="matrix" values="0 0 0 0 0 0 0 0 0 0 0 0 0 0 0 0 0 0 0.25 0"/>
<feBlend mode="normal" in2="BackgroundImageFix" result="effect1_dropShadow_1080_7716"/>
<feBlend mode="normal" in="SourceGraphic" in2="effect1_dropShadow_1080_7716" result="shape"/>
</filter>
</defs>
</svg>
