<svg width="63" height="40" viewBox="0 0 63 40" fill="none" xmlns="http://www.w3.org/2000/svg">
<path d="M0 39.0432L62.4854 38.2188L51.011 28.1743L0.464566 38.4235L0 39.0432Z" fill="#98BF0E"/>
<path d="M43.162 21.3013L51.0049 28.1799L0.458496 38.4291L1.68519 37.3972L43.162 21.3013Z" fill="#72A105"/>
<path d="M43.1711 21.3013L49.6386 18.7363L61.9663 26.0972L51.0202 28.1746L43.1711 21.3013Z" fill="#C2D96F"/>
<path d="M1.69434 37.4001L30.5186 10.1631L43.1711 21.3041L1.69434 37.4001Z" fill="#568801"/>
<path d="M49.7082 18.7389L43.2286 21.3039L30.5882 10.1655L1.75488 37.3998L24.9497 4.40234L49.7082 18.7389Z" fill="#92B82F"/>
<path d="M1.75488 37.4L25.0195 4.40523L49.7082 18.7391L59.2151 14.8592L18.0511 0L1.75488 37.4Z" fill="#C2D96F"/>
</svg>
