<svg width="64" height="64" viewBox="0 0 64 64" fill="none" xmlns="http://www.w3.org/2000/svg">
<path d="M58.6663 27.9998V25.9131C58.6663 20.7408 58.6663 18.1547 57.1042 16.5478C55.5421 14.941 53.028 14.941 47.9997 14.941H42.4566C40.0103 14.941 39.9902 14.9363 37.7903 13.8354L28.906 9.38955C25.1966 7.53328 23.3419 6.60515 21.366 6.66965C19.3902 6.73415 17.5964 7.78139 14.0089 9.87587L10.7345 11.7875C8.09937 13.326 6.78178 14.0952 6.05739 15.3749C5.33301 16.6546 5.33301 18.213 5.33301 21.3298V43.2418C5.33301 47.337 5.33301 49.3846 6.24571 50.5243C6.85303 51.2826 7.70409 51.7923 8.64501 51.9613C10.059 52.2153 11.7903 51.2046 15.2527 49.1832C17.6038 47.8105 19.8666 46.3848 22.6793 46.7714C25.0362 47.0954 27.2263 48.5824 29.333 49.6367" stroke="#41A62A" stroke-width="4.5" stroke-linecap="round" stroke-linejoin="round"/>
<path d="M21.333 6.6665L21.333 46.6665" stroke="#41A62A" stroke-width="4" stroke-linejoin="round"/>
<path d="M40 14.6665V25.3332" stroke="#41A62A" stroke-width="4" stroke-linecap="round" stroke-linejoin="round"/>
<path d="M46.666 32C53.1601 32 58.666 37.3773 58.666 43.901C58.666 50.5286 53.0704 55.1796 47.902 58.3423C47.5254 58.5549 47.0994 58.6667 46.666 58.6667C46.2326 58.6667 45.8067 58.5549 45.43 58.3423C40.2712 55.1487 34.666 50.5515 34.666 43.901C34.666 37.3773 40.1719 32 46.666 32Z" stroke="#41A62A" stroke-width="4"/>
<path d="M46.666 44H46.69" stroke="#41A62A" stroke-width="5.33333" stroke-linecap="round" stroke-linejoin="round"/>
</svg>
