<svg width="80" height="80" viewBox="0 0 80 80" fill="none" xmlns="http://www.w3.org/2000/svg">
<path d="M40 43.3335C43.6666 43.3335 47.2776 43.7644 50.833 44.6255C54.3885 45.4866 57.8886 46.7783 61.333 48.5005C62.9441 49.3338 64.2358 50.5422 65.208 52.1255C66.1801 53.7088 66.666 55.4447 66.666 57.3335V66.6665H13.333V57.3335C13.333 55.4448 13.819 53.7087 14.791 52.1255C15.7632 50.5423 17.0551 49.3338 18.666 48.5005C22.1103 46.7783 25.6106 45.4866 29.166 44.6255C32.7216 43.7644 36.3333 43.3335 40 43.3335ZM40 50.0005C36.889 50.0005 33.8055 50.3755 30.75 51.1255C27.6944 51.8755 24.666 53.0005 21.666 54.5005C21.1663 54.7782 20.7635 55.1667 20.458 55.6665C20.1525 56.1665 20 56.7224 20 57.3335V60.0005H60V57.3335C60 56.7224 59.8466 56.1665 59.541 55.6665C59.2355 55.1667 58.8328 54.7782 58.333 54.5005C55.3331 53.0006 52.3054 51.8755 49.25 51.1255C46.1946 50.3755 43.111 50.0005 40 50.0005ZM40 13.3335C43.6665 13.3336 46.805 14.6395 49.416 17.2505C52.027 19.8615 53.3329 23 53.333 26.6665C53.333 30.3332 52.0271 33.4724 49.416 36.0835C46.805 38.6944 43.6665 40.0004 40 40.0005C36.3333 40.0005 33.1941 38.6946 30.583 36.0835C27.9719 33.4724 26.666 30.3332 26.666 26.6665C26.6661 23.0001 27.9721 19.8615 30.583 17.2505C33.1941 14.6394 36.3333 13.3335 40 13.3335ZM40 20.0005C38.1667 20.0005 36.5966 20.6529 35.291 21.9585C33.9856 23.2639 33.3331 24.8334 33.333 26.6665C33.333 28.4998 33.9855 30.0699 35.291 31.3755C36.5966 32.681 38.1667 33.3335 40 33.3335C41.8331 33.3334 43.4026 32.6809 44.708 31.3755C46.0136 30.0699 46.666 28.4998 46.666 26.6665C46.6659 24.8333 46.0135 23.264 44.708 21.9585C43.4025 20.653 41.8332 20.0006 40 20.0005Z" fill="#41A62A"/>
<path d="M40 43.3335C43.6666 43.3335 47.2776 43.7644 50.833 44.6255C54.3885 45.4866 57.8886 46.7783 61.333 48.5005C62.9441 49.3338 64.2358 50.5422 65.208 52.1255C66.1801 53.7088 66.666 55.4447 66.666 57.3335V66.6665H13.333V57.3335C13.333 55.4448 13.819 53.7087 14.791 52.1255C15.7632 50.5423 17.0551 49.3338 18.666 48.5005C22.1103 46.7783 25.6106 45.4866 29.166 44.6255C32.7216 43.7644 36.3333 43.3335 40 43.3335ZM40 50.0005C36.889 50.0005 33.8055 50.3755 30.75 51.1255C27.6944 51.8755 24.666 53.0005 21.666 54.5005C21.1663 54.7782 20.7635 55.1667 20.458 55.6665C20.1525 56.1665 20 56.7224 20 57.3335V60.0005H60V57.3335C60 56.7224 59.8466 56.1665 59.541 55.6665C59.2355 55.1667 58.8328 54.7782 58.333 54.5005C55.3331 53.0006 52.3054 51.8755 49.25 51.1255C46.1946 50.3755 43.111 50.0005 40 50.0005ZM40 13.3335C43.6665 13.3336 46.805 14.6395 49.416 17.2505C52.027 19.8615 53.3329 23 53.333 26.6665C53.333 30.3332 52.0271 33.4724 49.416 36.0835C46.805 38.6944 43.6665 40.0004 40 40.0005C36.3333 40.0005 33.1941 38.6946 30.583 36.0835C27.9719 33.4724 26.666 30.3332 26.666 26.6665C26.6661 23.0001 27.9721 19.8615 30.583 17.2505C33.1941 14.6394 36.3333 13.3335 40 13.3335ZM40 20.0005C38.1667 20.0005 36.5966 20.6529 35.291 21.9585C33.9856 23.2639 33.3331 24.8334 33.333 26.6665C33.333 28.4998 33.9855 30.0699 35.291 31.3755C36.5966 32.681 38.1667 33.3335 40 33.3335C41.8331 33.3334 43.4026 32.6809 44.708 31.3755C46.0136 30.0699 46.666 28.4998 46.666 26.6665C46.6659 24.8333 46.0135 23.264 44.708 21.9585C43.4025 20.653 41.8332 20.0006 40 20.0005Z" stroke="#41A62A"/>
</svg>
