<svg width="29" height="29" viewBox="0 0 29 29" fill="none" xmlns="http://www.w3.org/2000/svg">
<path d="M3.37114 14.3197C2.10711 12.1052 1.49677 10.2968 1.12876 8.46382C0.584473 5.75282 1.83006 3.1046 3.89348 1.41484C4.76557 0.700672 5.76528 0.944672 6.28098 1.87424L7.44522 3.97284C8.36803 5.63625 8.82943 6.46795 8.73792 7.34972C8.6464 8.23149 8.02413 8.94965 6.77961 10.386L3.37114 14.3197ZM3.37114 14.3197C5.92965 18.8021 9.94476 22.8385 14.4112 25.4122M14.4112 25.4122C16.6152 26.6822 18.415 27.2954 20.2394 27.6652C22.9375 28.2121 25.5732 26.9606 27.255 24.8873C27.9658 24.0111 27.723 23.0067 26.7978 22.4885L24.7091 21.3187C23.0536 20.3915 22.2258 19.9279 21.3482 20.0199C20.4706 20.1119 19.7558 20.7371 18.3263 21.9875L14.4112 25.4122Z" stroke="white" stroke-width="2" stroke-linejoin="round"/>
</svg>
