<svg width="32" height="32" viewBox="0 0 32 32" fill="none" xmlns="http://www.w3.org/2000/svg">
<path d="M18.6667 2.66667C18.6667 1.95942 18.3857 1.28115 17.8856 0.781048C17.3855 0.280951 16.7072 0 16 0C15.2928 0 14.6145 0.280951 14.1144 0.781048C13.6143 1.28115 13.3333 1.95942 13.3333 2.66667V13.3333H2.66667C1.95942 13.3333 1.28115 13.6143 0.781048 14.1144C0.280951 14.6145 0 15.2928 0 16C0 16.7072 0.280951 17.3855 0.781048 17.8856C1.28115 18.3857 1.95942 18.6667 2.66667 18.6667H13.3333V29.3333C13.3333 30.0406 13.6143 30.7189 14.1144 31.219C14.6145 31.719 15.2928 32 16 32C16.7072 32 17.3855 31.719 17.8856 31.219C18.3857 30.7189 18.6667 30.0406 18.6667 29.3333V18.6667H29.3333C30.0406 18.6667 30.7189 18.3857 31.219 17.8856C31.719 17.3855 32 16.7072 32 16C32 15.2928 31.719 14.6145 31.219 14.1144C30.7189 13.6143 30.0406 13.3333 29.3333 13.3333H18.6667V2.66667Z" fill="white"/>
</svg>
