<svg width="30" height="30" viewBox="0 0 30 30" fill="none" xmlns="http://www.w3.org/2000/svg">
<path d="M3.87114 14.757C2.60711 12.5529 1.99677 10.7531 1.62876 8.92877C1.08447 6.23059 2.33006 3.5949 4.39348 1.91312C5.26557 1.20233 6.26528 1.44518 6.78098 2.37035L7.94522 4.45903C8.86803 6.11458 9.32943 6.94235 9.23792 7.81994C9.1464 8.69754 8.52413 9.4123 7.27961 10.8418L3.87114 14.757ZM3.87114 14.757C6.42965 19.2182 10.4448 23.2355 14.9112 25.797M14.9112 25.797C17.1152 27.061 18.915 27.6714 20.7394 28.0394C23.4375 28.5837 26.0732 27.3381 27.755 25.2746C28.4658 24.4026 28.223 23.4028 27.2978 22.8872L25.2091 21.7229C23.5536 20.8001 22.7258 20.3387 21.8482 20.4302C20.9706 20.5217 20.2558 21.144 18.8263 22.3885L14.9112 25.797Z" stroke="#99121A" stroke-width="3" stroke-linejoin="round"/>
</svg>
