<svg width="64" height="64" viewBox="0 0 64 64" fill="none" xmlns="http://www.w3.org/2000/svg">
<path d="M10.0733 31.8465C7.54527 27.4383 6.3246 23.8388 5.58857 20.1901C4.5 14.7937 6.99117 9.52231 11.118 6.15876C12.8622 4.73718 14.8616 5.22288 15.893 7.07323L18.2215 11.2506C20.0671 14.5617 20.9899 16.2172 20.8069 17.9724C20.6238 19.7276 19.3793 21.1571 16.8903 24.0162L10.0733 31.8465ZM10.0733 31.8465C15.1904 40.7689 23.2206 48.8035 32.1534 53.9265M32.1534 53.9265C36.5615 56.4546 40.1611 57.6752 43.8098 58.4113C49.2061 59.4998 54.4775 57.0087 57.8411 52.8818C59.2627 51.1376 58.777 49.1382 56.9266 48.1068L52.7493 45.7783C49.4382 43.9327 47.7826 43.0099 46.0274 43.193C44.2722 43.376 42.8427 44.6205 39.9837 47.1096L32.1534 53.9265Z" stroke="#41A62A" stroke-width="5" stroke-linejoin="round"/>
</svg>
