<svg width="61" height="47" viewBox="0 0 61 47" fill="none" xmlns="http://www.w3.org/2000/svg">
<path fill-rule="evenodd" clip-rule="evenodd" d="M30.25 24.75C35.4007 24.75 40.0675 26.455 43.4913 28.8393C46.7445 31.108 49.5 34.4795 49.5 38.1068C49.5 40.0978 48.6502 41.7477 47.311 42.9743C46.0515 44.132 44.407 44.8827 42.713 45.3942C39.3277 46.42 34.87 46.75 30.25 46.75C25.63 46.75 21.1723 46.42 17.787 45.3942C16.093 44.8827 14.4485 44.132 13.1863 42.9743C11.8525 41.7505 11 40.1005 11 38.1095C11 34.4823 13.7555 31.1107 17.0087 28.842C20.4325 26.455 25.0993 24.75 30.25 24.75ZM30.25 30.25C26.29 30.25 22.7067 31.57 20.1575 33.3493C17.4377 35.2467 16.5 37.1772 16.5 38.1068C16.5 38.9427 17.468 39.4652 18.348 39.7952L18.9117 39.9878L19.3792 40.1308C21.9642 40.9118 25.7593 41.25 30.25 41.25C34.397 41.25 37.9473 40.9613 40.502 40.304L41.338 40.0648L41.8605 39.8998C42.8037 39.578 44 39.0363 44 38.1068C44 37.1772 43.0622 35.2467 40.3425 33.3493C37.796 31.5728 34.21 30.25 30.25 30.25ZM49.5 27.5C52.371 27.5 54.978 28.4487 56.9058 29.7908C58.6658 31.02 60.5 33.0632 60.5 35.5547C60.5 39.226 56.9333 40.5405 53.7268 40.9998L52.9017 41.1015L52.107 41.1702L51.7275 41.1922C52.063 40.2435 52.25 39.2122 52.25 38.1068C52.2484 37.284 52.1496 36.4643 51.9557 35.6647C53.0173 35.5822 53.889 35.4448 54.538 35.2495C54.824 35.1615 54.5655 34.892 54.263 34.6582L53.9688 34.4437L53.7598 34.3035C52.9343 33.7401 52.0037 33.3491 51.0235 33.154C49.9785 31.064 48.3725 29.2545 46.662 27.8107C47.594 27.6049 48.5455 27.5007 49.5 27.5ZM11 27.5C11.9845 27.5037 12.9305 27.6072 13.838 27.8107C12.1275 29.2545 10.5215 31.064 9.4765 33.154C8.49635 33.3491 7.56568 33.7401 6.74025 34.3035L6.38825 34.5455C6.039 34.7985 5.62925 35.1505 5.962 35.2495C6.611 35.4448 7.48275 35.585 8.547 35.6647C8.3496 36.4637 8.24987 37.2837 8.25 38.1068C8.25 39.2122 8.437 40.2435 8.7725 41.1922L8.0025 41.1372L7.1885 41.0548C3.883 40.6505 0 39.3855 0 35.5547C0 33.066 1.8315 31.02 3.59425 29.7908C5.77493 28.297 8.35675 27.4984 11 27.5ZM48.125 11C49.9484 11 51.697 11.7243 52.9864 13.0136C54.2757 14.303 55 16.0516 55 17.875C55 19.6984 54.2757 21.447 52.9864 22.7364C51.697 24.0257 49.9484 24.75 48.125 24.75C46.3016 24.75 44.553 24.0257 43.2636 22.7364C41.9743 21.447 41.25 19.6984 41.25 17.875C41.25 16.0516 41.9743 14.303 43.2636 13.0136C44.553 11.7243 46.3016 11 48.125 11ZM12.375 11C14.1984 11 15.947 11.7243 17.2364 13.0136C18.5257 14.303 19.25 16.0516 19.25 17.875C19.25 19.6984 18.5257 21.447 17.2364 22.7364C15.947 24.0257 14.1984 24.75 12.375 24.75C10.5516 24.75 8.80295 24.0257 7.51364 22.7364C6.22433 21.447 5.5 19.6984 5.5 17.875C5.5 16.0516 6.22433 14.303 7.51364 13.0136C8.80295 11.7243 10.5516 11 12.375 11ZM30.25 0C33.1674 0 35.9653 1.15892 38.0282 3.22182C40.0911 5.28473 41.25 8.08262 41.25 11C41.25 13.9174 40.0911 16.7153 38.0282 18.7782C35.9653 20.8411 33.1674 22 30.25 22C27.3326 22 24.5347 20.8411 22.4718 18.7782C20.4089 16.7153 19.25 13.9174 19.25 11C19.25 8.08262 20.4089 5.28473 22.4718 3.22182C24.5347 1.15892 27.3326 0 30.25 0ZM48.125 16.5C47.7603 16.5 47.4106 16.6449 47.1527 16.9027C46.8949 17.1606 46.75 17.5103 46.75 17.875C46.75 18.2397 46.8949 18.5894 47.1527 18.8473C47.4106 19.1051 47.7603 19.25 48.125 19.25C48.4897 19.25 48.8394 19.1051 49.0973 18.8473C49.3551 18.5894 49.5 18.2397 49.5 17.875C49.5 17.5103 49.3551 17.1606 49.0973 16.9027C48.8394 16.6449 48.4897 16.5 48.125 16.5ZM12.375 16.5C12.0103 16.5 11.6606 16.6449 11.4027 16.9027C11.1449 17.1606 11 17.5103 11 17.875C11 18.2397 11.1449 18.5894 11.4027 18.8473C11.6606 19.1051 12.0103 19.25 12.375 19.25C12.7397 19.25 13.0894 19.1051 13.3473 18.8473C13.6051 18.5894 13.75 18.2397 13.75 17.875C13.75 17.5103 13.6051 17.1606 13.3473 16.9027C13.0894 16.6449 12.7397 16.5 12.375 16.5ZM30.25 5.5C28.7913 5.5 27.3924 6.07946 26.3609 7.11091C25.3295 8.14236 24.75 9.54131 24.75 11C24.75 12.4587 25.3295 13.8576 26.3609 14.8891C27.3924 15.9205 28.7913 16.5 30.25 16.5C31.7087 16.5 33.1076 15.9205 34.1391 14.8891C35.1705 13.8576 35.75 12.4587 35.75 11C35.75 9.54131 35.1705 8.14236 34.1391 7.11091C33.1076 6.07946 31.7087 5.5 30.25 5.5Z" fill="white"/>
</svg>
