<svg width="50" height="50" viewBox="0 0 50 50" fill="none" xmlns="http://www.w3.org/2000/svg">
<path d="M28.875 4.125C28.875 3.03098 28.4404 1.98177 27.6668 1.20818C26.8932 0.434597 25.844 0 24.75 0C23.656 0 22.6068 0.434597 21.8332 1.20818C21.0596 1.98177 20.625 3.03098 20.625 4.125V20.625H4.125C3.03098 20.625 1.98177 21.0596 1.20818 21.8332C0.434597 22.6068 0 23.656 0 24.75C0 25.844 0.434597 26.8932 1.20818 27.6668C1.98177 28.4404 3.03098 28.875 4.125 28.875H20.625V45.375C20.625 46.469 21.0596 47.5182 21.8332 48.2918C22.6068 49.0654 23.656 49.5 24.75 49.5C25.844 49.5 26.8932 49.0654 27.6668 48.2918C28.4404 47.5182 28.875 46.469 28.875 45.375V28.875H45.375C46.469 28.875 47.5182 28.4404 48.2918 27.6668C49.0654 26.8932 49.5 25.844 49.5 24.75C49.5 23.656 49.0654 22.6068 48.2918 21.8332C47.5182 21.0596 46.469 20.625 45.375 20.625H28.875V4.125Z" fill="black"/>
</svg>
